<?xml version="1.0" encoding="UTF-8"?>
<svg id="Layer_1" xmlns="http://www.w3.org/2000/svg" version="1.1" viewBox="0 0 181.42 36.1">
  <!-- Generator: Adobe Illustrator 30.2.1, SVG Export Plug-In . SVG Version: 2.1.1 Build 1)  -->
  <defs>
    <style>
      .st0 {
        fill-rule: evenodd;
      }

      .st0, .st1 {
        fill: #f5ee6d;
      }

      .st2 {
        fill: #fff;
      }
    </style>
  </defs>
  <path class="st0" d="M174.84,16.75l-2.39,5.35-1.97-2.32c-.33-.38-.82-.53-1.31-.4-.48.13-.84.52-.93,1.01l-.72,4.18c-.23,3.85-3.88,5.16-6.91,5.56H13.61c-3.13-.04-5.34-.75-6.6-2.08-1.56-1.68-1.44-4.11-1.34-5.89.03-.37.04-.72.04-1.01,0-.35.14-.63.37-.78.17-.11.39-.12.54-.05.37.19.99.98.99.98.12.22.62.93.73,1.21,0,0,.88,2.75,5.14,1.83,0,1.28.02,2.51.02,2.86,0,.12-.02.26-.07.38h7.73c-.05-.12-.07-.26-.07-.38,0-.51.02-2.18.02-4.24,0-1.45-.49-2.37-1.04-2.86,3.42-.38,6.99-1.68,6.99-7.61,0-1.68-.57-3.06-1.56-4.14.15-.38.68-1.97-.16-4.08,0,0-1.28-.41-4.2,1.58-1.23-.33-2.54-.51-3.84-.51-1.29.01-2.57.18-3.82.51-2.92-2-4.2-1.58-4.2-1.58-.84,2.11-.32,3.7-.16,4.08-.97,1.07-1.58,2.45-1.58,4.14,0,5.92,3.58,7.26,6.98,7.61-.43.37-.84,1.07-.97,2.06-.82.39-2.81.99-4.17-.84,0,0-.49-2.24-1.81-2.91-.8-.42-1.8-.37-2.61.13-.89.54-1.39,1.49-1.39,2.6,0,.25-.02.56-.04.9-.1,1.92-.27,5.12,1.92,7.45,1.67,1.78,4.41,2.71,8.15,2.76h142.29c1.13,0,2.24-.06,3.35-.18,1.57-.17,3.93-.5,5.43-1.13,2.42-1,4.47-2.84,4.68-6.18l.5-2.91,1.61,1.91c.32.38.81.56,1.3.49s.9-.38,1.1-.83l2.66-5.94-1.68-.73h0ZM21.9,11.73c0-.06.05-.12.12-.12h.88c.06,0,.12.05.12.12v1.99c0,.06-.05.12-.12.12h-.88c-.06,0-.12-.05-.12-.12v-1.99ZM19.67,7.84c0-.06.05-.12.12-.12h.88c.06,0,.12.05.12.12v9.77c0,.06-.05.12-.12.12h-.88c-.06,0-.12-.05-.12-.12V7.84ZM17.45,7.84c0-.06.05-.12.12-.12h.88c.06,0,.12.05.12.12v9.77c0,.06-.05.12-.12.12h-.88c-.06,0-.12-.05-.12-.12V7.84ZM14.13,17.61c0,.06-.05.12-.12.12h-.88c-.06,0-.12-.05-.12-.12V7.84c0-.06.05-.12.12-.12h.88c.06,0,.12.05.12.12v9.77ZM15.23,7.84c0-.06.05-.12.12-.12h.88c.06,0,.12.05.12.12v9.77c0,.06-.05.12-.12.12h-.88c-.06,0-.12-.05-.12-.12V7.84Z"/>
  <path class="st2" d="M44.41,25.6c-.86,1.31-2.87,2.29-5.53,2.29-5.77,0-10.02-4.58-10.02-11.18s4.34-11.42,10.45-11.42c4.79,0,7.94,2.53,9.28,6.57l-4.86,1.56c-.49-2.35-2.08-3.7-4.4-3.7-3.18,0-5.37,2.75-5.37,6.93s2.2,6.93,5.47,6.93c2.5,0,4.18-1.68,4.46-3.94h-4.86v-4.18h9.9v12.09h-4.52s0-1.95,0-1.95Z"/>
  <path class="st2" d="M52.1,5.63h4.98v4.18h-4.98s0-4.18,0-4.18ZM57.02,27.55h-4.89V11.46h4.89v16.09Z"/>
  <path class="st2" d="M60.78,15.49h-2.05v-4.03h2.05v-4.46h4.83v4.46h3.15v4.03h-3.15v6.51c0,1.34.7,1.59,1.92,1.59.58,0,.85-.03,1.41-.09v4c-.86.12-1.77.21-2.93.21-3.48,0-5.22-1.16-5.22-4.46v-7.76h-.01Z"/>
  <path class="st1" d="M81.94,9.99v17.56h-5.1V9.99h-6.72v-4.37h18.51v4.37h-6.69Z"/>
  <path class="st1" d="M97.22,16.13c-.52-.09-.89-.12-1.43-.12-2.11,0-3.79,1.31-3.79,3.63v7.91h-4.89V11.46h4.89v2.11c.73-1.28,2.29-2.2,4.15-2.2.46,0,.76.03,1.07.06,0,0,0,4.7,0,4.7Z"/>
  <path class="st1" d="M97.89,19.49c0-4.76,3.42-8.37,8.06-8.37,4.89,0,7.54,3.6,7.54,8.15v1.28h-10.9c.34,2.2,1.65,3.45,3.51,3.45,1.53,0,2.72-.73,3.18-2.14l4.09,1.31c-1.19,3.08-4.12,4.7-7.33,4.7-4.86,0-8.15-3.39-8.15-8.4,0,0,0,.02,0,.02ZM102.75,17.57h5.93c-.03-1.44-.98-2.66-2.78-2.66-1.5,0-2.66.89-3.15,2.66Z"/>
  <path class="st1" d="M114.73,11.46h4.89v1.62c.89-1.04,2.38-1.95,4.43-1.95,3.3,0,5.38,2.29,5.38,5.8v10.63h-4.89v-9.22c0-1.62-.67-2.81-2.26-2.81-1.34,0-2.66.95-2.66,2.84v9.19h-4.89V11.46Z"/>
  <path class="st1" d="M130.69,19.52c0-4.61,2.5-8.4,6.93-8.4,1.92,0,3.45.79,4.37,1.95v-7.45h4.89v21.93h-4.89v-1.59c-.92,1.13-2.44,1.92-4.37,1.92-4.43,0-6.93-3.79-6.93-8.37h0ZM138.88,15.31c-2.14,0-3.27,1.74-3.27,4.21s1.13,4.21,3.27,4.21c1.83,0,3.15-1.37,3.15-3.79v-.85c0-2.44-1.31-3.79-3.15-3.79h0Z"/>
  <path class="st1" d="M151.11,21.9c1.31,1.44,3.39,2.29,5.13,2.29,1.28,0,2.35-.43,2.35-1.28,0-1.07-1.07-1.19-3.63-1.65-2.66-.52-5.5-1.22-5.5-4.7,0-3.27,2.9-5.44,6.87-5.44,2.9,0,5.47,1.1,6.81,2.56l-2.44,3.15c-1.22-1.28-2.81-1.99-4.4-1.99-1.19,0-1.95.46-1.95,1.19,0,.89.95,1.01,2.9,1.37,2.9.58,6.14,1.28,6.14,4.92s-3.24,5.56-7.33,5.56c-2.81,0-5.99-.95-7.48-2.69l2.53-3.3h0Z"/>
  <polygon class="st0" points="177.06 16.28 176.52 17.48 174.84 16.75 175.39 15.53 177.06 16.28"/>
  <path class="st1" d="M178.14,17.89c.02.13-.12.23-.24.18l-1.38-.59-1.68-.73-1.44-.62c-.12-.05-.14-.22-.03-.3l3.93-2.92h0c.11-.09.26-.02.28.11l.57,4.87Z"/>
</svg>